<?xml version="1.0" standalone="no"?><!DOCTYPE svg PUBLIC "-//W3C//DTD SVG 1.1//EN" "http://www.w3.org/Graphics/SVG/1.1/DTD/svg11.dtd"><svg t="1626228282828" class="icon" viewBox="0 0 1024 1024" version="1.1" xmlns="http://www.w3.org/2000/svg" p-id="4181" xmlns:xlink="http://www.w3.org/1999/xlink" width="200" height="200"><defs><style type="text/css"></style></defs><path d="M665.472 153.6a153.6 153.6 0 0 0-307.2 0v23.808l307.2 307.2zM726.144 798.72L885.376 957.696l72.448-72.192-819.2-819.2L66.176 138.496l292.096 292.352V512A153.6 153.6 0 0 0 578.176 650.496l75.008 74.752A256 256 0 0 1 255.872 512h-102.4a358.4 358.4 0 0 0 307.2 354.304V921.6l-102.4 102.4h307.2l-102.4-102.4v-55.296a355.84 355.84 0 0 0 163.072-67.584zM870.272 512h-102.4a246.272 246.272 0 0 1-8.96 66.048l80.128 79.872a356.096 356.096 0 0 0 31.232-145.92z" p-id="4182" fill="#bfbfbf"></path></svg>